<mxfile host="drawio-plugin" modified="2023-09-05T11:46:39.154Z" agent="5.0 (Windows NT 10.0; Win64; x64) AppleWebKit/537.36 (KHTML, like Gecko) Chrome/111.0.0.0 Safari/537.36" version="20.5.3" etag="2Pl6zCbQOmgLKcJ5PWHv" type="embed" pages="2"><diagram id="fC5acbSVhN1mX1bBR_iq" name="Domain"><mxGraphModel dx="1184" dy="882" grid="1" gridSize="10" guides="1" tooltips="1" connect="1" arrows="1" fold="1" page="1" pageScale="1" pageWidth="850" pageHeight="1100" math="0" shadow="0"><root><mxCell id="0"/><mxCell id="1" parent="0"/><mxCell id="6zbf3iV-yf6J4zd8dwAQ-7" style="edgeStyle=orthogonalEdgeStyle;rounded=0;orthogonalLoop=1;jettySize=auto;html=1;exitX=1;exitY=0.5;exitDx=0;exitDy=0;entryX=0;entryY=0.5;entryDx=0;entryDy=0;startArrow=none;startFill=0;endArrow=block;endFill=0;dashed=1;" edge="1" parent="1" source="6zbf3iV-yf6J4zd8dwAQ-1" target="6zbf3iV-yf6J4zd8dwAQ-2"><mxGeometry relative="1" as="geometry"/></mxCell><mxCell id="6zbf3iV-yf6J4zd8dwAQ-1" value="&lt;p style=&quot;margin:0px;margin-top:4px;text-align:center;text-decoration:underline;&quot;&gt;&lt;b&gt;Rekening&lt;/b&gt;&lt;/p&gt;&lt;hr&gt;&lt;p style=&quot;margin:0px;margin-left:8px;&quot;&gt;- Iban: String&lt;/p&gt;&lt;p style=&quot;margin:0px;margin-left:8px;&quot;&gt;- Saldo: float&lt;/p&gt;&lt;p style=&quot;margin:0px;margin-left:8px;&quot;&gt;- Status: RekeningStatus&lt;/p&gt;" style="verticalAlign=top;align=left;overflow=fill;fontSize=12;fontFamily=Helvetica;html=1;rounded=1;" vertex="1" parent="1"><mxGeometry x="180" y="270" width="160" height="90" as="geometry"/></mxCell><mxCell id="6zbf3iV-yf6J4zd8dwAQ-2" value="&lt;p style=&quot;margin:0px;margin-top:4px;text-align:center;text-decoration:underline;&quot;&gt;&lt;b&gt;&amp;lt;enum&amp;gt;&lt;/b&gt;&lt;/p&gt;&lt;p style=&quot;margin:0px;margin-top:4px;text-align:center;text-decoration:underline;&quot;&gt;&lt;b&gt;RekeningStatus&lt;/b&gt;&lt;/p&gt;&lt;hr&gt;&lt;p style=&quot;margin:0px;margin-left:8px;&quot;&gt;NORMAAL&lt;/p&gt;&lt;p style=&quot;margin:0px;margin-left:8px;&quot;&gt;GEBLOKKEERD&lt;/p&gt;" style="verticalAlign=top;align=left;overflow=fill;fontSize=12;fontFamily=Helvetica;html=1;rounded=1;" vertex="1" parent="1"><mxGeometry x="460" y="270" width="160" height="90" as="geometry"/></mxCell><mxCell id="6zbf3iV-yf6J4zd8dwAQ-4" style="edgeStyle=orthogonalEdgeStyle;rounded=0;orthogonalLoop=1;jettySize=auto;html=1;exitX=0.5;exitY=0;exitDx=0;exitDy=0;entryX=0.5;entryY=1;entryDx=0;entryDy=0;endArrow=classic;endFill=1;startArrow=classic;startFill=1;" edge="1" parent="1" source="6zbf3iV-yf6J4zd8dwAQ-3" target="6zbf3iV-yf6J4zd8dwAQ-1"><mxGeometry relative="1" as="geometry"/></mxCell><mxCell id="6zbf3iV-yf6J4zd8dwAQ-5" value="0..*" style="edgeLabel;html=1;align=center;verticalAlign=middle;resizable=0;points=[];" vertex="1" connectable="0" parent="6zbf3iV-yf6J4zd8dwAQ-4"><mxGeometry x="0.7407" y="-2" relative="1" as="geometry"><mxPoint x="18" as="offset"/></mxGeometry></mxCell><mxCell id="6zbf3iV-yf6J4zd8dwAQ-6" value="1..*" style="edgeLabel;html=1;align=center;verticalAlign=middle;resizable=0;points=[];" vertex="1" connectable="0" parent="6zbf3iV-yf6J4zd8dwAQ-4"><mxGeometry x="-0.7556" relative="1" as="geometry"><mxPoint x="20" as="offset"/></mxGeometry></mxCell><mxCell id="6zbf3iV-yf6J4zd8dwAQ-3" value="&lt;p style=&quot;margin:0px;margin-top:4px;text-align:center;text-decoration:underline;&quot;&gt;&lt;b&gt;Persoon&lt;/b&gt;&lt;/p&gt;&lt;hr&gt;&lt;p style=&quot;margin:0px;margin-left:8px;&quot;&gt;- Bsn: String&lt;br&gt;&lt;/p&gt;&lt;p style=&quot;margin:0px;margin-left:8px;&quot;&gt;- Naam: String&lt;/p&gt;" style="verticalAlign=top;align=left;overflow=fill;fontSize=12;fontFamily=Helvetica;html=1;rounded=1;" vertex="1" parent="1"><mxGeometry x="180" y="450" width="160" height="90" as="geometry"/></mxCell></root></mxGraphModel></diagram><diagram id="kuF42HpOToL3xjNt-aw0" name="ERD"><mxGraphModel dx="1006" dy="750" grid="1" gridSize="10" guides="1" tooltips="1" connect="1" arrows="1" fold="1" page="1" pageScale="1" pageWidth="850" pageHeight="1100" math="0" shadow="0"><root><mxCell id="0"/><mxCell id="1" parent="0"/><mxCell id="f4KAdyUFal230urVMYs9-3" style="edgeStyle=orthogonalEdgeStyle;rounded=0;orthogonalLoop=1;jettySize=auto;html=1;exitX=1;exitY=0.5;exitDx=0;exitDy=0;entryX=0;entryY=0.5;entryDx=0;entryDy=0;startArrow=ERone;startFill=0;endArrow=ERoneToMany;endFill=0;" edge="1" parent="1" source="HZJF1wHFW4fyAzksY-w5-9" target="f4KAdyUFal230urVMYs9-1"><mxGeometry relative="1" as="geometry"/></mxCell><mxCell id="HZJF1wHFW4fyAzksY-w5-9" value="&lt;p style=&quot;margin:0px;margin-top:4px;text-align:center;text-decoration:underline;&quot;&gt;&lt;b&gt;Rekening&lt;/b&gt;&lt;/p&gt;&lt;hr&gt;&lt;p style=&quot;margin:0px;margin-left:8px;&quot;&gt;PK-Iban: char(18)&lt;/p&gt;&lt;p style=&quot;margin:0px;margin-left:8px;&quot;&gt;Float: numeric(19, 0)&lt;/p&gt;&lt;p style=&quot;margin:0px;margin-left:8px;&quot;&gt;Status: integer(2)&lt;/p&gt;" style="verticalAlign=top;align=left;overflow=fill;fontSize=12;fontFamily=Helvetica;html=1;rounded=1;" vertex="1" parent="1"><mxGeometry x="40" y="200" width="160" height="110" as="geometry"/></mxCell><mxCell id="f4KAdyUFal230urVMYs9-1" value="&lt;p style=&quot;margin:0px;margin-top:4px;text-align:center;text-decoration:underline;&quot;&gt;&lt;b&gt;PersoonRekening&lt;/b&gt;&lt;/p&gt;&lt;hr&gt;&lt;p style=&quot;margin:0px;margin-left:8px;&quot;&gt;FK-Bsn: char(9)&lt;/p&gt;&lt;p style=&quot;margin:0px;margin-left:8px;&quot;&gt;FK-Iban: char(18)&lt;/p&gt;" style="verticalAlign=top;align=left;overflow=fill;fontSize=12;fontFamily=Helvetica;html=1;rounded=1;" vertex="1" parent="1"><mxGeometry x="320" y="200" width="160" height="110" as="geometry"/></mxCell><mxCell id="f4KAdyUFal230urVMYs9-4" style="edgeStyle=orthogonalEdgeStyle;rounded=0;orthogonalLoop=1;jettySize=auto;html=1;exitX=0;exitY=0.5;exitDx=0;exitDy=0;entryX=1;entryY=0.5;entryDx=0;entryDy=0;startArrow=ERone;startFill=0;endArrow=ERzeroToMany;endFill=0;" edge="1" parent="1" source="f4KAdyUFal230urVMYs9-2" target="f4KAdyUFal230urVMYs9-1"><mxGeometry relative="1" as="geometry"/></mxCell><mxCell id="f4KAdyUFal230urVMYs9-2" value="&lt;p style=&quot;margin:0px;margin-top:4px;text-align:center;text-decoration:underline;&quot;&gt;&lt;b&gt;Persoon&lt;/b&gt;&lt;/p&gt;&lt;hr&gt;&lt;p style=&quot;margin:0px;margin-left:8px;&quot;&gt;PK-Bsn: char(9)&lt;/p&gt;&lt;p style=&quot;margin:0px;margin-left:8px;&quot;&gt;Name: varchar(64)&lt;/p&gt;" style="verticalAlign=top;align=left;overflow=fill;fontSize=12;fontFamily=Helvetica;html=1;rounded=1;" vertex="1" parent="1"><mxGeometry x="600" y="200" width="160" height="110" as="geometry"/></mxCell></root></mxGraphModel></diagram></mxfile>